# A unit crate (generated, generic).
o crate
v -0.5 0 -0.5
v 0.5 0 -0.5
v 0.5 1 -0.5
v -0.5 1 -0.5
v -0.5 0 0.5
v 0.5 0 0.5
v 0.5 1 0.5
v -0.5 1 0.5
vt 0 0
vt 1 0
vt 1 1
vt 0 1
vt 0 0
vt 1 0
vt 1 1
vt 0 1
vt 0 0
vt 1 0
vt 1 1
vt 0 1
vt 0 0
vt 1 0
vt 1 1
vt 0 1
vt 0 0
vt 1 0
vt 1 1
vt 0 1
vt 0 0
vt 1 0
vt 1 1
vt 0 1
vt2 0.0400 0.0400
vt2 0.2933 0.0400
vt2 0.2933 0.4600
vt2 0.0400 0.4600
vt2 0.3733 0.0400
vt2 0.6267 0.0400
vt2 0.6267 0.4600
vt2 0.3733 0.4600
vt2 0.7067 0.0400
vt2 0.9600 0.0400
vt2 0.9600 0.4600
vt2 0.7067 0.4600
vt2 0.0400 0.5400
vt2 0.2933 0.5400
vt2 0.2933 0.9600
vt2 0.0400 0.9600
vt2 0.3733 0.5400
vt2 0.6267 0.5400
vt2 0.6267 0.9600
vt2 0.3733 0.9600
vt2 0.7067 0.5400
vt2 0.9600 0.5400
vt2 0.9600 0.9600
vt2 0.7067 0.9600
vn 0 0 1
vn 0 0 -1
vn 1 0 0
vn -1 0 0
vn 0 1 0
vn 0 -1 0
f 5/1/1 6/2/1 7/3/1 8/4/1
f 2/5/2 1/6/2 4/7/2 3/8/2
f 6/9/3 2/10/3 3/11/3 7/12/3
f 1/13/4 5/14/4 8/15/4 4/16/4
f 8/17/5 7/18/5 3/19/5 4/20/5
f 1/21/6 2/22/6 6/23/6 5/24/6
