# Town avatar, mid detail: 336 triangles. Generated; rigid skinning.
v -0.045 0.02 0.0
v -0.066967 0.02 0.053033
v -0.12 0.02 0.075
v -0.173033 0.02 0.053033
v -0.195 0.02 0.0
v -0.173033 0.02 -0.053033
v -0.12 0.02 -0.075
v -0.066967 0.02 -0.053033
v -0.045 0.47 0.0
v -0.066967 0.47 0.053033
v -0.12 0.47 0.075
v -0.173033 0.47 0.053033
v -0.195 0.47 0.0
v -0.173033 0.47 -0.053033
v -0.12 0.47 -0.075
v -0.066967 0.47 -0.053033
v -0.045 0.92 0.0
v -0.066967 0.92 0.053033
v -0.12 0.92 0.075
v -0.173033 0.92 0.053033
v -0.195 0.92 0.0
v -0.173033 0.92 -0.053033
v -0.12 0.92 -0.075
v -0.066967 0.92 -0.053033
v -0.12 0.02 0.0
v -0.12 0.92 0.0
v 0.195 0.02 0.0
v 0.173033 0.02 0.053033
v 0.12 0.02 0.075
v 0.066967 0.02 0.053033
v 0.045 0.02 0.0
v 0.066967 0.02 -0.053033
v 0.12 0.02 -0.075
v 0.173033 0.02 -0.053033
v 0.195 0.47 0.0
v 0.173033 0.47 0.053033
v 0.12 0.47 0.075
v 0.066967 0.47 0.053033
v 0.045 0.47 0.0
v 0.066967 0.47 -0.053033
v 0.12 0.47 -0.075
v 0.173033 0.47 -0.053033
v 0.195 0.92 0.0
v 0.173033 0.92 0.053033
v 0.12 0.92 0.075
v 0.066967 0.92 0.053033
v 0.045 0.92 0.0
v 0.066967 0.92 -0.053033
v 0.12 0.92 -0.075
v 0.173033 0.92 -0.053033
v 0.12 0.02 0.0
v 0.12 0.92 0.0
v 0.17 0.84 0.0
v 0.120208 0.84 0.120208
v 0.0 0.84 0.17
v -0.120208 0.84 0.120208
v -0.17 0.84 0.0
v -0.120208 0.84 -0.120208
v -0.0 0.84 -0.17
v 0.120208 0.84 -0.120208
v 0.17 0.93 0.0
v 0.120208 0.93 0.120208
v 0.0 0.93 0.17
v -0.120208 0.93 0.120208
v -0.17 0.93 0.0
v -0.120208 0.93 -0.120208
v -0.0 0.93 -0.17
v 0.120208 0.93 -0.120208
v 0.17 1.02 0.0
v 0.120208 1.02 0.120208
v 0.0 1.02 0.17
v -0.120208 1.02 0.120208
v -0.17 1.02 0.0
v -0.120208 1.02 -0.120208
v -0.0 1.02 -0.17
v 0.120208 1.02 -0.120208
v 0.0 0.84 0.0
v 0.0 1.02 0.0
v 0.18 1.0 0.0
v 0.127279 1.0 0.127279
v 0.0 1.0 0.18
v -0.127279 1.0 0.127279
v -0.18 1.0 0.0
v -0.127279 1.0 -0.127279
v -0.0 1.0 -0.18
v 0.127279 1.0 -0.127279
v 0.18 1.3 0.0
v 0.127279 1.3 0.127279
v 0.0 1.3 0.18
v -0.127279 1.3 0.127279
v -0.18 1.3 0.0
v -0.127279 1.3 -0.127279
v -0.0 1.3 -0.18
v 0.127279 1.3 -0.127279
v 0.18 1.6 0.0
v 0.127279 1.6 0.127279
v 0.0 1.6 0.18
v -0.127279 1.6 0.127279
v -0.18 1.6 0.0
v -0.127279 1.6 -0.127279
v -0.0 1.6 -0.18
v 0.127279 1.6 -0.127279
v 0.0 1.0 0.0
v 0.0 1.6 0.0
v 0.11 1.62 0.0
v 0.077782 1.62 0.077782
v 0.0 1.62 0.11
v -0.077782 1.62 0.077782
v -0.11 1.62 0.0
v -0.077782 1.62 -0.077782
v -0.0 1.62 -0.11
v 0.077782 1.62 -0.077782
v 0.11 1.74 0.0
v 0.077782 1.74 0.077782
v 0.0 1.74 0.11
v -0.077782 1.74 0.077782
v -0.11 1.74 0.0
v -0.077782 1.74 -0.077782
v -0.0 1.74 -0.11
v 0.077782 1.74 -0.077782
v 0.11 1.86 0.0
v 0.077782 1.86 0.077782
v 0.0 1.86 0.11
v -0.077782 1.86 0.077782
v -0.11 1.86 0.0
v -0.077782 1.86 -0.077782
v -0.0 1.86 -0.11
v 0.077782 1.86 -0.077782
v 0.0 1.62 0.0
v 0.0 1.86 0.0
v -0.25 0.98 0.0
v -0.264645 0.98 0.035355
v -0.3 0.98 0.05
v -0.335355 0.98 0.035355
v -0.35 0.98 0.0
v -0.335355 0.98 -0.035355
v -0.3 0.98 -0.05
v -0.264645 0.98 -0.035355
v -0.25 1.28 0.0
v -0.264645 1.28 0.035355
v -0.3 1.28 0.05
v -0.335355 1.28 0.035355
v -0.35 1.28 0.0
v -0.335355 1.28 -0.035355
v -0.3 1.28 -0.05
v -0.264645 1.28 -0.035355
v -0.25 1.58 0.0
v -0.264645 1.58 0.035355
v -0.3 1.58 0.05
v -0.335355 1.58 0.035355
v -0.35 1.58 0.0
v -0.335355 1.58 -0.035355
v -0.3 1.58 -0.05
v -0.264645 1.58 -0.035355
v -0.3 0.98 0.0
v -0.3 1.58 0.0
v 0.35 0.98 0.0
v 0.335355 0.98 0.035355
v 0.3 0.98 0.05
v 0.264645 0.98 0.035355
v 0.25 0.98 0.0
v 0.264645 0.98 -0.035355
v 0.3 0.98 -0.05
v 0.335355 0.98 -0.035355
v 0.35 1.28 0.0
v 0.335355 1.28 0.035355
v 0.3 1.28 0.05
v 0.264645 1.28 0.035355
v 0.25 1.28 0.0
v 0.264645 1.28 -0.035355
v 0.3 1.28 -0.05
v 0.335355 1.28 -0.035355
v 0.35 1.58 0.0
v 0.335355 1.58 0.035355
v 0.3 1.58 0.05
v 0.264645 1.58 0.035355
v 0.25 1.58 0.0
v 0.264645 1.58 -0.035355
v 0.3 1.58 -0.05
v 0.335355 1.58 -0.035355
v 0.3 0.98 0.0
v 0.3 1.58 0.0
f 1 9 10
f 1 10 2
f 2 10 11
f 2 11 3
f 3 11 12
f 3 12 4
f 4 12 13
f 4 13 5
f 5 13 14
f 5 14 6
f 6 14 15
f 6 15 7
f 7 15 16
f 7 16 8
f 8 16 9
f 8 9 1
f 9 17 18
f 9 18 10
f 10 18 19
f 10 19 11
f 11 19 20
f 11 20 12
f 12 20 21
f 12 21 13
f 13 21 22
f 13 22 14
f 14 22 23
f 14 23 15
f 15 23 24
f 15 24 16
f 16 24 17
f 16 17 9
f 25 1 2
f 26 18 17
f 25 2 3
f 26 19 18
f 25 3 4
f 26 20 19
f 25 4 5
f 26 21 20
f 25 5 6
f 26 22 21
f 25 6 7
f 26 23 22
f 25 7 8
f 26 24 23
f 25 8 1
f 26 17 24
f 27 35 36
f 27 36 28
f 28 36 37
f 28 37 29
f 29 37 38
f 29 38 30
f 30 38 39
f 30 39 31
f 31 39 40
f 31 40 32
f 32 40 41
f 32 41 33
f 33 41 42
f 33 42 34
f 34 42 35
f 34 35 27
f 35 43 44
f 35 44 36
f 36 44 45
f 36 45 37
f 37 45 46
f 37 46 38
f 38 46 47
f 38 47 39
f 39 47 48
f 39 48 40
f 40 48 49
f 40 49 41
f 41 49 50
f 41 50 42
f 42 50 43
f 42 43 35
f 51 27 28
f 52 44 43
f 51 28 29
f 52 45 44
f 51 29 30
f 52 46 45
f 51 30 31
f 52 47 46
f 51 31 32
f 52 48 47
f 51 32 33
f 52 49 48
f 51 33 34
f 52 50 49
f 51 34 27
f 52 43 50
f 53 61 62
f 53 62 54
f 54 62 63
f 54 63 55
f 55 63 64
f 55 64 56
f 56 64 65
f 56 65 57
f 57 65 66
f 57 66 58
f 58 66 67
f 58 67 59
f 59 67 68
f 59 68 60
f 60 68 61
f 60 61 53
f 61 69 70
f 61 70 62
f 62 70 71
f 62 71 63
f 63 71 72
f 63 72 64
f 64 72 73
f 64 73 65
f 65 73 74
f 65 74 66
f 66 74 75
f 66 75 67
f 67 75 76
f 67 76 68
f 68 76 69
f 68 69 61
f 77 53 54
f 78 70 69
f 77 54 55
f 78 71 70
f 77 55 56
f 78 72 71
f 77 56 57
f 78 73 72
f 77 57 58
f 78 74 73
f 77 58 59
f 78 75 74
f 77 59 60
f 78 76 75
f 77 60 53
f 78 69 76
f 79 87 88
f 79 88 80
f 80 88 89
f 80 89 81
f 81 89 90
f 81 90 82
f 82 90 91
f 82 91 83
f 83 91 92
f 83 92 84
f 84 92 93
f 84 93 85
f 85 93 94
f 85 94 86
f 86 94 87
f 86 87 79
f 87 95 96
f 87 96 88
f 88 96 97
f 88 97 89
f 89 97 98
f 89 98 90
f 90 98 99
f 90 99 91
f 91 99 100
f 91 100 92
f 92 100 101
f 92 101 93
f 93 101 102
f 93 102 94
f 94 102 95
f 94 95 87
f 103 79 80
f 104 96 95
f 103 80 81
f 104 97 96
f 103 81 82
f 104 98 97
f 103 82 83
f 104 99 98
f 103 83 84
f 104 100 99
f 103 84 85
f 104 101 100
f 103 85 86
f 104 102 101
f 103 86 79
f 104 95 102
f 105 113 114
f 105 114 106
f 106 114 115
f 106 115 107
f 107 115 116
f 107 116 108
f 108 116 117
f 108 117 109
f 109 117 118
f 109 118 110
f 110 118 119
f 110 119 111
f 111 119 120
f 111 120 112
f 112 120 113
f 112 113 105
f 113 121 122
f 113 122 114
f 114 122 123
f 114 123 115
f 115 123 124
f 115 124 116
f 116 124 125
f 116 125 117
f 117 125 126
f 117 126 118
f 118 126 127
f 118 127 119
f 119 127 128
f 119 128 120
f 120 128 121
f 120 121 113
f 129 105 106
f 130 122 121
f 129 106 107
f 130 123 122
f 129 107 108
f 130 124 123
f 129 108 109
f 130 125 124
f 129 109 110
f 130 126 125
f 129 110 111
f 130 127 126
f 129 111 112
f 130 128 127
f 129 112 105
f 130 121 128
f 131 139 140
f 131 140 132
f 132 140 141
f 132 141 133
f 133 141 142
f 133 142 134
f 134 142 143
f 134 143 135
f 135 143 144
f 135 144 136
f 136 144 145
f 136 145 137
f 137 145 146
f 137 146 138
f 138 146 139
f 138 139 131
f 139 147 148
f 139 148 140
f 140 148 149
f 140 149 141
f 141 149 150
f 141 150 142
f 142 150 151
f 142 151 143
f 143 151 152
f 143 152 144
f 144 152 153
f 144 153 145
f 145 153 154
f 145 154 146
f 146 154 147
f 146 147 139
f 155 131 132
f 156 148 147
f 155 132 133
f 156 149 148
f 155 133 134
f 156 150 149
f 155 134 135
f 156 151 150
f 155 135 136
f 156 152 151
f 155 136 137
f 156 153 152
f 155 137 138
f 156 154 153
f 155 138 131
f 156 147 154
f 157 165 166
f 157 166 158
f 158 166 167
f 158 167 159
f 159 167 168
f 159 168 160
f 160 168 169
f 160 169 161
f 161 169 170
f 161 170 162
f 162 170 171
f 162 171 163
f 163 171 172
f 163 172 164
f 164 172 165
f 164 165 157
f 165 173 174
f 165 174 166
f 166 174 175
f 166 175 167
f 167 175 176
f 167 176 168
f 168 176 177
f 168 177 169
f 169 177 178
f 169 178 170
f 170 178 179
f 170 179 171
f 171 179 180
f 171 180 172
f 172 180 173
f 172 173 165
f 181 157 158
f 182 174 173
f 181 158 159
f 182 175 174
f 181 159 160
f 182 176 175
f 181 160 161
f 182 177 176
f 181 161 162
f 182 178 177
f 181 162 163
f 182 179 178
f 181 163 164
f 182 180 179
f 181 164 157
f 182 173 180
