# Town avatar, near detail: 1568 triangles. Generated; rigid skinning.
v -0.045 0.02 0.0
v -0.050709 0.02 0.028701
v -0.066967 0.02 0.053033
v -0.091299 0.02 0.069291
v -0.12 0.02 0.075
v -0.148701 0.02 0.069291
v -0.173033 0.02 0.053033
v -0.189291 0.02 0.028701
v -0.195 0.02 0.0
v -0.189291 0.02 -0.028701
v -0.173033 0.02 -0.053033
v -0.148701 0.02 -0.069291
v -0.12 0.02 -0.075
v -0.091299 0.02 -0.069291
v -0.066967 0.02 -0.053033
v -0.050709 0.02 -0.028701
v -0.045 0.17 0.0
v -0.050709 0.17 0.028701
v -0.066967 0.17 0.053033
v -0.091299 0.17 0.069291
v -0.12 0.17 0.075
v -0.148701 0.17 0.069291
v -0.173033 0.17 0.053033
v -0.189291 0.17 0.028701
v -0.195 0.17 0.0
v -0.189291 0.17 -0.028701
v -0.173033 0.17 -0.053033
v -0.148701 0.17 -0.069291
v -0.12 0.17 -0.075
v -0.091299 0.17 -0.069291
v -0.066967 0.17 -0.053033
v -0.050709 0.17 -0.028701
v -0.045 0.32 0.0
v -0.050709 0.32 0.028701
v -0.066967 0.32 0.053033
v -0.091299 0.32 0.069291
v -0.12 0.32 0.075
v -0.148701 0.32 0.069291
v -0.173033 0.32 0.053033
v -0.189291 0.32 0.028701
v -0.195 0.32 0.0
v -0.189291 0.32 -0.028701
v -0.173033 0.32 -0.053033
v -0.148701 0.32 -0.069291
v -0.12 0.32 -0.075
v -0.091299 0.32 -0.069291
v -0.066967 0.32 -0.053033
v -0.050709 0.32 -0.028701
v -0.045 0.47 0.0
v -0.050709 0.47 0.028701
v -0.066967 0.47 0.053033
v -0.091299 0.47 0.069291
v -0.12 0.47 0.075
v -0.148701 0.47 0.069291
v -0.173033 0.47 0.053033
v -0.189291 0.47 0.028701
v -0.195 0.47 0.0
v -0.189291 0.47 -0.028701
v -0.173033 0.47 -0.053033
v -0.148701 0.47 -0.069291
v -0.12 0.47 -0.075
v -0.091299 0.47 -0.069291
v -0.066967 0.47 -0.053033
v -0.050709 0.47 -0.028701
v -0.045 0.62 0.0
v -0.050709 0.62 0.028701
v -0.066967 0.62 0.053033
v -0.091299 0.62 0.069291
v -0.12 0.62 0.075
v -0.148701 0.62 0.069291
v -0.173033 0.62 0.053033
v -0.189291 0.62 0.028701
v -0.195 0.62 0.0
v -0.189291 0.62 -0.028701
v -0.173033 0.62 -0.053033
v -0.148701 0.62 -0.069291
v -0.12 0.62 -0.075
v -0.091299 0.62 -0.069291
v -0.066967 0.62 -0.053033
v -0.050709 0.62 -0.028701
v -0.045 0.77 0.0
v -0.050709 0.77 0.028701
v -0.066967 0.77 0.053033
v -0.091299 0.77 0.069291
v -0.12 0.77 0.075
v -0.148701 0.77 0.069291
v -0.173033 0.77 0.053033
v -0.189291 0.77 0.028701
v -0.195 0.77 0.0
v -0.189291 0.77 -0.028701
v -0.173033 0.77 -0.053033
v -0.148701 0.77 -0.069291
v -0.12 0.77 -0.075
v -0.091299 0.77 -0.069291
v -0.066967 0.77 -0.053033
v -0.050709 0.77 -0.028701
v -0.045 0.92 0.0
v -0.050709 0.92 0.028701
v -0.066967 0.92 0.053033
v -0.091299 0.92 0.069291
v -0.12 0.92 0.075
v -0.148701 0.92 0.069291
v -0.173033 0.92 0.053033
v -0.189291 0.92 0.028701
v -0.195 0.92 0.0
v -0.189291 0.92 -0.028701
v -0.173033 0.92 -0.053033
v -0.148701 0.92 -0.069291
v -0.12 0.92 -0.075
v -0.091299 0.92 -0.069291
v -0.066967 0.92 -0.053033
v -0.050709 0.92 -0.028701
v -0.12 0.02 0.0
v -0.12 0.92 0.0
v 0.195 0.02 0.0
v 0.189291 0.02 0.028701
v 0.173033 0.02 0.053033
v 0.148701 0.02 0.069291
v 0.12 0.02 0.075
v 0.091299 0.02 0.069291
v 0.066967 0.02 0.053033
v 0.050709 0.02 0.028701
v 0.045 0.02 0.0
v 0.050709 0.02 -0.028701
v 0.066967 0.02 -0.053033
v 0.091299 0.02 -0.069291
v 0.12 0.02 -0.075
v 0.148701 0.02 -0.069291
v 0.173033 0.02 -0.053033
v 0.189291 0.02 -0.028701
v 0.195 0.17 0.0
v 0.189291 0.17 0.028701
v 0.173033 0.17 0.053033
v 0.148701 0.17 0.069291
v 0.12 0.17 0.075
v 0.091299 0.17 0.069291
v 0.066967 0.17 0.053033
v 0.050709 0.17 0.028701
v 0.045 0.17 0.0
v 0.050709 0.17 -0.028701
v 0.066967 0.17 -0.053033
v 0.091299 0.17 -0.069291
v 0.12 0.17 -0.075
v 0.148701 0.17 -0.069291
v 0.173033 0.17 -0.053033
v 0.189291 0.17 -0.028701
v 0.195 0.32 0.0
v 0.189291 0.32 0.028701
v 0.173033 0.32 0.053033
v 0.148701 0.32 0.069291
v 0.12 0.32 0.075
v 0.091299 0.32 0.069291
v 0.066967 0.32 0.053033
v 0.050709 0.32 0.028701
v 0.045 0.32 0.0
v 0.050709 0.32 -0.028701
v 0.066967 0.32 -0.053033
v 0.091299 0.32 -0.069291
v 0.12 0.32 -0.075
v 0.148701 0.32 -0.069291
v 0.173033 0.32 -0.053033
v 0.189291 0.32 -0.028701
v 0.195 0.47 0.0
v 0.189291 0.47 0.028701
v 0.173033 0.47 0.053033
v 0.148701 0.47 0.069291
v 0.12 0.47 0.075
v 0.091299 0.47 0.069291
v 0.066967 0.47 0.053033
v 0.050709 0.47 0.028701
v 0.045 0.47 0.0
v 0.050709 0.47 -0.028701
v 0.066967 0.47 -0.053033
v 0.091299 0.47 -0.069291
v 0.12 0.47 -0.075
v 0.148701 0.47 -0.069291
v 0.173033 0.47 -0.053033
v 0.189291 0.47 -0.028701
v 0.195 0.62 0.0
v 0.189291 0.62 0.028701
v 0.173033 0.62 0.053033
v 0.148701 0.62 0.069291
v 0.12 0.62 0.075
v 0.091299 0.62 0.069291
v 0.066967 0.62 0.053033
v 0.050709 0.62 0.028701
v 0.045 0.62 0.0
v 0.050709 0.62 -0.028701
v 0.066967 0.62 -0.053033
v 0.091299 0.62 -0.069291
v 0.12 0.62 -0.075
v 0.148701 0.62 -0.069291
v 0.173033 0.62 -0.053033
v 0.189291 0.62 -0.028701
v 0.195 0.77 0.0
v 0.189291 0.77 0.028701
v 0.173033 0.77 0.053033
v 0.148701 0.77 0.069291
v 0.12 0.77 0.075
v 0.091299 0.77 0.069291
v 0.066967 0.77 0.053033
v 0.050709 0.77 0.028701
v 0.045 0.77 0.0
v 0.050709 0.77 -0.028701
v 0.066967 0.77 -0.053033
v 0.091299 0.77 -0.069291
v 0.12 0.77 -0.075
v 0.148701 0.77 -0.069291
v 0.173033 0.77 -0.053033
v 0.189291 0.77 -0.028701
v 0.195 0.92 0.0
v 0.189291 0.92 0.028701
v 0.173033 0.92 0.053033
v 0.148701 0.92 0.069291
v 0.12 0.92 0.075
v 0.091299 0.92 0.069291
v 0.066967 0.92 0.053033
v 0.050709 0.92 0.028701
v 0.045 0.92 0.0
v 0.050709 0.92 -0.028701
v 0.066967 0.92 -0.053033
v 0.091299 0.92 -0.069291
v 0.12 0.92 -0.075
v 0.148701 0.92 -0.069291
v 0.173033 0.92 -0.053033
v 0.189291 0.92 -0.028701
v 0.12 0.02 0.0
v 0.12 0.92 0.0
v 0.17 0.84 0.0
v 0.15706 0.84 0.065056
v 0.120208 0.84 0.120208
v 0.065056 0.84 0.15706
v 0.0 0.84 0.17
v -0.065056 0.84 0.15706
v -0.120208 0.84 0.120208
v -0.15706 0.84 0.065056
v -0.17 0.84 0.0
v -0.15706 0.84 -0.065056
v -0.120208 0.84 -0.120208
v -0.065056 0.84 -0.15706
v -0.0 0.84 -0.17
v 0.065056 0.84 -0.15706
v 0.120208 0.84 -0.120208
v 0.15706 0.84 -0.065056
v 0.17 0.87 0.0
v 0.15706 0.87 0.065056
v 0.120208 0.87 0.120208
v 0.065056 0.87 0.15706
v 0.0 0.87 0.17
v -0.065056 0.87 0.15706
v -0.120208 0.87 0.120208
v -0.15706 0.87 0.065056
v -0.17 0.87 0.0
v -0.15706 0.87 -0.065056
v -0.120208 0.87 -0.120208
v -0.065056 0.87 -0.15706
v -0.0 0.87 -0.17
v 0.065056 0.87 -0.15706
v 0.120208 0.87 -0.120208
v 0.15706 0.87 -0.065056
v 0.17 0.9 0.0
v 0.15706 0.9 0.065056
v 0.120208 0.9 0.120208
v 0.065056 0.9 0.15706
v 0.0 0.9 0.17
v -0.065056 0.9 0.15706
v -0.120208 0.9 0.120208
v -0.15706 0.9 0.065056
v -0.17 0.9 0.0
v -0.15706 0.9 -0.065056
v -0.120208 0.9 -0.120208
v -0.065056 0.9 -0.15706
v -0.0 0.9 -0.17
v 0.065056 0.9 -0.15706
v 0.120208 0.9 -0.120208
v 0.15706 0.9 -0.065056
v 0.17 0.93 0.0
v 0.15706 0.93 0.065056
v 0.120208 0.93 0.120208
v 0.065056 0.93 0.15706
v 0.0 0.93 0.17
v -0.065056 0.93 0.15706
v -0.120208 0.93 0.120208
v -0.15706 0.93 0.065056
v -0.17 0.93 0.0
v -0.15706 0.93 -0.065056
v -0.120208 0.93 -0.120208
v -0.065056 0.93 -0.15706
v -0.0 0.93 -0.17
v 0.065056 0.93 -0.15706
v 0.120208 0.93 -0.120208
v 0.15706 0.93 -0.065056
v 0.17 0.96 0.0
v 0.15706 0.96 0.065056
v 0.120208 0.96 0.120208
v 0.065056 0.96 0.15706
v 0.0 0.96 0.17
v -0.065056 0.96 0.15706
v -0.120208 0.96 0.120208
v -0.15706 0.96 0.065056
v -0.17 0.96 0.0
v -0.15706 0.96 -0.065056
v -0.120208 0.96 -0.120208
v -0.065056 0.96 -0.15706
v -0.0 0.96 -0.17
v 0.065056 0.96 -0.15706
v 0.120208 0.96 -0.120208
v 0.15706 0.96 -0.065056
v 0.17 0.99 0.0
v 0.15706 0.99 0.065056
v 0.120208 0.99 0.120208
v 0.065056 0.99 0.15706
v 0.0 0.99 0.17
v -0.065056 0.99 0.15706
v -0.120208 0.99 0.120208
v -0.15706 0.99 0.065056
v -0.17 0.99 0.0
v -0.15706 0.99 -0.065056
v -0.120208 0.99 -0.120208
v -0.065056 0.99 -0.15706
v -0.0 0.99 -0.17
v 0.065056 0.99 -0.15706
v 0.120208 0.99 -0.120208
v 0.15706 0.99 -0.065056
v 0.17 1.02 0.0
v 0.15706 1.02 0.065056
v 0.120208 1.02 0.120208
v 0.065056 1.02 0.15706
v 0.0 1.02 0.17
v -0.065056 1.02 0.15706
v -0.120208 1.02 0.120208
v -0.15706 1.02 0.065056
v -0.17 1.02 0.0
v -0.15706 1.02 -0.065056
v -0.120208 1.02 -0.120208
v -0.065056 1.02 -0.15706
v -0.0 1.02 -0.17
v 0.065056 1.02 -0.15706
v 0.120208 1.02 -0.120208
v 0.15706 1.02 -0.065056
v 0.0 0.84 0.0
v 0.0 1.02 0.0
v 0.18 1.0 0.0
v 0.166298 1.0 0.068883
v 0.127279 1.0 0.127279
v 0.068883 1.0 0.166298
v 0.0 1.0 0.18
v -0.068883 1.0 0.166298
v -0.127279 1.0 0.127279
v -0.166298 1.0 0.068883
v -0.18 1.0 0.0
v -0.166298 1.0 -0.068883
v -0.127279 1.0 -0.127279
v -0.068883 1.0 -0.166298
v -0.0 1.0 -0.18
v 0.068883 1.0 -0.166298
v 0.127279 1.0 -0.127279
v 0.166298 1.0 -0.068883
v 0.18 1.1 0.0
v 0.166298 1.1 0.068883
v 0.127279 1.1 0.127279
v 0.068883 1.1 0.166298
v 0.0 1.1 0.18
v -0.068883 1.1 0.166298
v -0.127279 1.1 0.127279
v -0.166298 1.1 0.068883
v -0.18 1.1 0.0
v -0.166298 1.1 -0.068883
v -0.127279 1.1 -0.127279
v -0.068883 1.1 -0.166298
v -0.0 1.1 -0.18
v 0.068883 1.1 -0.166298
v 0.127279 1.1 -0.127279
v 0.166298 1.1 -0.068883
v 0.18 1.2 0.0
v 0.166298 1.2 0.068883
v 0.127279 1.2 0.127279
v 0.068883 1.2 0.166298
v 0.0 1.2 0.18
v -0.068883 1.2 0.166298
v -0.127279 1.2 0.127279
v -0.166298 1.2 0.068883
v -0.18 1.2 0.0
v -0.166298 1.2 -0.068883
v -0.127279 1.2 -0.127279
v -0.068883 1.2 -0.166298
v -0.0 1.2 -0.18
v 0.068883 1.2 -0.166298
v 0.127279 1.2 -0.127279
v 0.166298 1.2 -0.068883
v 0.18 1.3 0.0
v 0.166298 1.3 0.068883
v 0.127279 1.3 0.127279
v 0.068883 1.3 0.166298
v 0.0 1.3 0.18
v -0.068883 1.3 0.166298
v -0.127279 1.3 0.127279
v -0.166298 1.3 0.068883
v -0.18 1.3 0.0
v -0.166298 1.3 -0.068883
v -0.127279 1.3 -0.127279
v -0.068883 1.3 -0.166298
v -0.0 1.3 -0.18
v 0.068883 1.3 -0.166298
v 0.127279 1.3 -0.127279
v 0.166298 1.3 -0.068883
v 0.18 1.4 0.0
v 0.166298 1.4 0.068883
v 0.127279 1.4 0.127279
v 0.068883 1.4 0.166298
v 0.0 1.4 0.18
v -0.068883 1.4 0.166298
v -0.127279 1.4 0.127279
v -0.166298 1.4 0.068883
v -0.18 1.4 0.0
v -0.166298 1.4 -0.068883
v -0.127279 1.4 -0.127279
v -0.068883 1.4 -0.166298
v -0.0 1.4 -0.18
v 0.068883 1.4 -0.166298
v 0.127279 1.4 -0.127279
v 0.166298 1.4 -0.068883
v 0.18 1.5 0.0
v 0.166298 1.5 0.068883
v 0.127279 1.5 0.127279
v 0.068883 1.5 0.166298
v 0.0 1.5 0.18
v -0.068883 1.5 0.166298
v -0.127279 1.5 0.127279
v -0.166298 1.5 0.068883
v -0.18 1.5 0.0
v -0.166298 1.5 -0.068883
v -0.127279 1.5 -0.127279
v -0.068883 1.5 -0.166298
v -0.0 1.5 -0.18
v 0.068883 1.5 -0.166298
v 0.127279 1.5 -0.127279
v 0.166298 1.5 -0.068883
v 0.18 1.6 0.0
v 0.166298 1.6 0.068883
v 0.127279 1.6 0.127279
v 0.068883 1.6 0.166298
v 0.0 1.6 0.18
v -0.068883 1.6 0.166298
v -0.127279 1.6 0.127279
v -0.166298 1.6 0.068883
v -0.18 1.6 0.0
v -0.166298 1.6 -0.068883
v -0.127279 1.6 -0.127279
v -0.068883 1.6 -0.166298
v -0.0 1.6 -0.18
v 0.068883 1.6 -0.166298
v 0.127279 1.6 -0.127279
v 0.166298 1.6 -0.068883
v 0.0 1.0 0.0
v 0.0 1.6 0.0
v 0.11 1.62 0.0
v 0.101627 1.62 0.042095
v 0.077782 1.62 0.077782
v 0.042095 1.62 0.101627
v 0.0 1.62 0.11
v -0.042095 1.62 0.101627
v -0.077782 1.62 0.077782
v -0.101627 1.62 0.042095
v -0.11 1.62 0.0
v -0.101627 1.62 -0.042095
v -0.077782 1.62 -0.077782
v -0.042095 1.62 -0.101627
v -0.0 1.62 -0.11
v 0.042095 1.62 -0.101627
v 0.077782 1.62 -0.077782
v 0.101627 1.62 -0.042095
v 0.11 1.66 0.0
v 0.101627 1.66 0.042095
v 0.077782 1.66 0.077782
v 0.042095 1.66 0.101627
v 0.0 1.66 0.11
v -0.042095 1.66 0.101627
v -0.077782 1.66 0.077782
v -0.101627 1.66 0.042095
v -0.11 1.66 0.0
v -0.101627 1.66 -0.042095
v -0.077782 1.66 -0.077782
v -0.042095 1.66 -0.101627
v -0.0 1.66 -0.11
v 0.042095 1.66 -0.101627
v 0.077782 1.66 -0.077782
v 0.101627 1.66 -0.042095
v 0.11 1.7 0.0
v 0.101627 1.7 0.042095
v 0.077782 1.7 0.077782
v 0.042095 1.7 0.101627
v 0.0 1.7 0.11
v -0.042095 1.7 0.101627
v -0.077782 1.7 0.077782
v -0.101627 1.7 0.042095
v -0.11 1.7 0.0
v -0.101627 1.7 -0.042095
v -0.077782 1.7 -0.077782
v -0.042095 1.7 -0.101627
v -0.0 1.7 -0.11
v 0.042095 1.7 -0.101627
v 0.077782 1.7 -0.077782
v 0.101627 1.7 -0.042095
v 0.11 1.74 0.0
v 0.101627 1.74 0.042095
v 0.077782 1.74 0.077782
v 0.042095 1.74 0.101627
v 0.0 1.74 0.11
v -0.042095 1.74 0.101627
v -0.077782 1.74 0.077782
v -0.101627 1.74 0.042095
v -0.11 1.74 0.0
v -0.101627 1.74 -0.042095
v -0.077782 1.74 -0.077782
v -0.042095 1.74 -0.101627
v -0.0 1.74 -0.11
v 0.042095 1.74 -0.101627
v 0.077782 1.74 -0.077782
v 0.101627 1.74 -0.042095
v 0.11 1.78 0.0
v 0.101627 1.78 0.042095
v 0.077782 1.78 0.077782
v 0.042095 1.78 0.101627
v 0.0 1.78 0.11
v -0.042095 1.78 0.101627
v -0.077782 1.78 0.077782
v -0.101627 1.78 0.042095
v -0.11 1.78 0.0
v -0.101627 1.78 -0.042095
v -0.077782 1.78 -0.077782
v -0.042095 1.78 -0.101627
v -0.0 1.78 -0.11
v 0.042095 1.78 -0.101627
v 0.077782 1.78 -0.077782
v 0.101627 1.78 -0.042095
v 0.11 1.82 0.0
v 0.101627 1.82 0.042095
v 0.077782 1.82 0.077782
v 0.042095 1.82 0.101627
v 0.0 1.82 0.11
v -0.042095 1.82 0.101627
v -0.077782 1.82 0.077782
v -0.101627 1.82 0.042095
v -0.11 1.82 0.0
v -0.101627 1.82 -0.042095
v -0.077782 1.82 -0.077782
v -0.042095 1.82 -0.101627
v -0.0 1.82 -0.11
v 0.042095 1.82 -0.101627
v 0.077782 1.82 -0.077782
v 0.101627 1.82 -0.042095
v 0.11 1.86 0.0
v 0.101627 1.86 0.042095
v 0.077782 1.86 0.077782
v 0.042095 1.86 0.101627
v 0.0 1.86 0.11
v -0.042095 1.86 0.101627
v -0.077782 1.86 0.077782
v -0.101627 1.86 0.042095
v -0.11 1.86 0.0
v -0.101627 1.86 -0.042095
v -0.077782 1.86 -0.077782
v -0.042095 1.86 -0.101627
v -0.0 1.86 -0.11
v 0.042095 1.86 -0.101627
v 0.077782 1.86 -0.077782
v 0.101627 1.86 -0.042095
v 0.0 1.62 0.0
v 0.0 1.86 0.0
v -0.25 0.98 0.0
v -0.253806 0.98 0.019134
v -0.264645 0.98 0.035355
v -0.280866 0.98 0.046194
v -0.3 0.98 0.05
v -0.319134 0.98 0.046194
v -0.335355 0.98 0.035355
v -0.346194 0.98 0.019134
v -0.35 0.98 0.0
v -0.346194 0.98 -0.019134
v -0.335355 0.98 -0.035355
v -0.319134 0.98 -0.046194
v -0.3 0.98 -0.05
v -0.280866 0.98 -0.046194
v -0.264645 0.98 -0.035355
v -0.253806 0.98 -0.019134
v -0.25 1.08 0.0
v -0.253806 1.08 0.019134
v -0.264645 1.08 0.035355
v -0.280866 1.08 0.046194
v -0.3 1.08 0.05
v -0.319134 1.08 0.046194
v -0.335355 1.08 0.035355
v -0.346194 1.08 0.019134
v -0.35 1.08 0.0
v -0.346194 1.08 -0.019134
v -0.335355 1.08 -0.035355
v -0.319134 1.08 -0.046194
v -0.3 1.08 -0.05
v -0.280866 1.08 -0.046194
v -0.264645 1.08 -0.035355
v -0.253806 1.08 -0.019134
v -0.25 1.18 0.0
v -0.253806 1.18 0.019134
v -0.264645 1.18 0.035355
v -0.280866 1.18 0.046194
v -0.3 1.18 0.05
v -0.319134 1.18 0.046194
v -0.335355 1.18 0.035355
v -0.346194 1.18 0.019134
v -0.35 1.18 0.0
v -0.346194 1.18 -0.019134
v -0.335355 1.18 -0.035355
v -0.319134 1.18 -0.046194
v -0.3 1.18 -0.05
v -0.280866 1.18 -0.046194
v -0.264645 1.18 -0.035355
v -0.253806 1.18 -0.019134
v -0.25 1.28 0.0
v -0.253806 1.28 0.019134
v -0.264645 1.28 0.035355
v -0.280866 1.28 0.046194
v -0.3 1.28 0.05
v -0.319134 1.28 0.046194
v -0.335355 1.28 0.035355
v -0.346194 1.28 0.019134
v -0.35 1.28 0.0
v -0.346194 1.28 -0.019134
v -0.335355 1.28 -0.035355
v -0.319134 1.28 -0.046194
v -0.3 1.28 -0.05
v -0.280866 1.28 -0.046194
v -0.264645 1.28 -0.035355
v -0.253806 1.28 -0.019134
v -0.25 1.38 0.0
v -0.253806 1.38 0.019134
v -0.264645 1.38 0.035355
v -0.280866 1.38 0.046194
v -0.3 1.38 0.05
v -0.319134 1.38 0.046194
v -0.335355 1.38 0.035355
v -0.346194 1.38 0.019134
v -0.35 1.38 0.0
v -0.346194 1.38 -0.019134
v -0.335355 1.38 -0.035355
v -0.319134 1.38 -0.046194
v -0.3 1.38 -0.05
v -0.280866 1.38 -0.046194
v -0.264645 1.38 -0.035355
v -0.253806 1.38 -0.019134
v -0.25 1.48 0.0
v -0.253806 1.48 0.019134
v -0.264645 1.48 0.035355
v -0.280866 1.48 0.046194
v -0.3 1.48 0.05
v -0.319134 1.48 0.046194
v -0.335355 1.48 0.035355
v -0.346194 1.48 0.019134
v -0.35 1.48 0.0
v -0.346194 1.48 -0.019134
v -0.335355 1.48 -0.035355
v -0.319134 1.48 -0.046194
v -0.3 1.48 -0.05
v -0.280866 1.48 -0.046194
v -0.264645 1.48 -0.035355
v -0.253806 1.48 -0.019134
v -0.25 1.58 0.0
v -0.253806 1.58 0.019134
v -0.264645 1.58 0.035355
v -0.280866 1.58 0.046194
v -0.3 1.58 0.05
v -0.319134 1.58 0.046194
v -0.335355 1.58 0.035355
v -0.346194 1.58 0.019134
v -0.35 1.58 0.0
v -0.346194 1.58 -0.019134
v -0.335355 1.58 -0.035355
v -0.319134 1.58 -0.046194
v -0.3 1.58 -0.05
v -0.280866 1.58 -0.046194
v -0.264645 1.58 -0.035355
v -0.253806 1.58 -0.019134
v -0.3 0.98 0.0
v -0.3 1.58 0.0
v 0.35 0.98 0.0
v 0.346194 0.98 0.019134
v 0.335355 0.98 0.035355
v 0.319134 0.98 0.046194
v 0.3 0.98 0.05
v 0.280866 0.98 0.046194
v 0.264645 0.98 0.035355
v 0.253806 0.98 0.019134
v 0.25 0.98 0.0
v 0.253806 0.98 -0.019134
v 0.264645 0.98 -0.035355
v 0.280866 0.98 -0.046194
v 0.3 0.98 -0.05
v 0.319134 0.98 -0.046194
v 0.335355 0.98 -0.035355
v 0.346194 0.98 -0.019134
v 0.35 1.08 0.0
v 0.346194 1.08 0.019134
v 0.335355 1.08 0.035355
v 0.319134 1.08 0.046194
v 0.3 1.08 0.05
v 0.280866 1.08 0.046194
v 0.264645 1.08 0.035355
v 0.253806 1.08 0.019134
v 0.25 1.08 0.0
v 0.253806 1.08 -0.019134
v 0.264645 1.08 -0.035355
v 0.280866 1.08 -0.046194
v 0.3 1.08 -0.05
v 0.319134 1.08 -0.046194
v 0.335355 1.08 -0.035355
v 0.346194 1.08 -0.019134
v 0.35 1.18 0.0
v 0.346194 1.18 0.019134
v 0.335355 1.18 0.035355
v 0.319134 1.18 0.046194
v 0.3 1.18 0.05
v 0.280866 1.18 0.046194
v 0.264645 1.18 0.035355
v 0.253806 1.18 0.019134
v 0.25 1.18 0.0
v 0.253806 1.18 -0.019134
v 0.264645 1.18 -0.035355
v 0.280866 1.18 -0.046194
v 0.3 1.18 -0.05
v 0.319134 1.18 -0.046194
v 0.335355 1.18 -0.035355
v 0.346194 1.18 -0.019134
v 0.35 1.28 0.0
v 0.346194 1.28 0.019134
v 0.335355 1.28 0.035355
v 0.319134 1.28 0.046194
v 0.3 1.28 0.05
v 0.280866 1.28 0.046194
v 0.264645 1.28 0.035355
v 0.253806 1.28 0.019134
v 0.25 1.28 0.0
v 0.253806 1.28 -0.019134
v 0.264645 1.28 -0.035355
v 0.280866 1.28 -0.046194
v 0.3 1.28 -0.05
v 0.319134 1.28 -0.046194
v 0.335355 1.28 -0.035355
v 0.346194 1.28 -0.019134
v 0.35 1.38 0.0
v 0.346194 1.38 0.019134
v 0.335355 1.38 0.035355
v 0.319134 1.38 0.046194
v 0.3 1.38 0.05
v 0.280866 1.38 0.046194
v 0.264645 1.38 0.035355
v 0.253806 1.38 0.019134
v 0.25 1.38 0.0
v 0.253806 1.38 -0.019134
v 0.264645 1.38 -0.035355
v 0.280866 1.38 -0.046194
v 0.3 1.38 -0.05
v 0.319134 1.38 -0.046194
v 0.335355 1.38 -0.035355
v 0.346194 1.38 -0.019134
v 0.35 1.48 0.0
v 0.346194 1.48 0.019134
v 0.335355 1.48 0.035355
v 0.319134 1.48 0.046194
v 0.3 1.48 0.05
v 0.280866 1.48 0.046194
v 0.264645 1.48 0.035355
v 0.253806 1.48 0.019134
v 0.25 1.48 0.0
v 0.253806 1.48 -0.019134
v 0.264645 1.48 -0.035355
v 0.280866 1.48 -0.046194
v 0.3 1.48 -0.05
v 0.319134 1.48 -0.046194
v 0.335355 1.48 -0.035355
v 0.346194 1.48 -0.019134
v 0.35 1.58 0.0
v 0.346194 1.58 0.019134
v 0.335355 1.58 0.035355
v 0.319134 1.58 0.046194
v 0.3 1.58 0.05
v 0.280866 1.58 0.046194
v 0.264645 1.58 0.035355
v 0.253806 1.58 0.019134
v 0.25 1.58 0.0
v 0.253806 1.58 -0.019134
v 0.264645 1.58 -0.035355
v 0.280866 1.58 -0.046194
v 0.3 1.58 -0.05
v 0.319134 1.58 -0.046194
v 0.335355 1.58 -0.035355
v 0.346194 1.58 -0.019134
v 0.3 0.98 0.0
v 0.3 1.58 0.0
f 1 17 18
f 1 18 2
f 2 18 19
f 2 19 3
f 3 19 20
f 3 20 4
f 4 20 21
f 4 21 5
f 5 21 22
f 5 22 6
f 6 22 23
f 6 23 7
f 7 23 24
f 7 24 8
f 8 24 25
f 8 25 9
f 9 25 26
f 9 26 10
f 10 26 27
f 10 27 11
f 11 27 28
f 11 28 12
f 12 28 29
f 12 29 13
f 13 29 30
f 13 30 14
f 14 30 31
f 14 31 15
f 15 31 32
f 15 32 16
f 16 32 17
f 16 17 1
f 17 33 34
f 17 34 18
f 18 34 35
f 18 35 19
f 19 35 36
f 19 36 20
f 20 36 37
f 20 37 21
f 21 37 38
f 21 38 22
f 22 38 39
f 22 39 23
f 23 39 40
f 23 40 24
f 24 40 41
f 24 41 25
f 25 41 42
f 25 42 26
f 26 42 43
f 26 43 27
f 27 43 44
f 27 44 28
f 28 44 45
f 28 45 29
f 29 45 46
f 29 46 30
f 30 46 47
f 30 47 31
f 31 47 48
f 31 48 32
f 32 48 33
f 32 33 17
f 33 49 50
f 33 50 34
f 34 50 51
f 34 51 35
f 35 51 52
f 35 52 36
f 36 52 53
f 36 53 37
f 37 53 54
f 37 54 38
f 38 54 55
f 38 55 39
f 39 55 56
f 39 56 40
f 40 56 57
f 40 57 41
f 41 57 58
f 41 58 42
f 42 58 59
f 42 59 43
f 43 59 60
f 43 60 44
f 44 60 61
f 44 61 45
f 45 61 62
f 45 62 46
f 46 62 63
f 46 63 47
f 47 63 64
f 47 64 48
f 48 64 49
f 48 49 33
f 49 65 66
f 49 66 50
f 50 66 67
f 50 67 51
f 51 67 68
f 51 68 52
f 52 68 69
f 52 69 53
f 53 69 70
f 53 70 54
f 54 70 71
f 54 71 55
f 55 71 72
f 55 72 56
f 56 72 73
f 56 73 57
f 57 73 74
f 57 74 58
f 58 74 75
f 58 75 59
f 59 75 76
f 59 76 60
f 60 76 77
f 60 77 61
f 61 77 78
f 61 78 62
f 62 78 79
f 62 79 63
f 63 79 80
f 63 80 64
f 64 80 65
f 64 65 49
f 65 81 82
f 65 82 66
f 66 82 83
f 66 83 67
f 67 83 84
f 67 84 68
f 68 84 85
f 68 85 69
f 69 85 86
f 69 86 70
f 70 86 87
f 70 87 71
f 71 87 88
f 71 88 72
f 72 88 89
f 72 89 73
f 73 89 90
f 73 90 74
f 74 90 91
f 74 91 75
f 75 91 92
f 75 92 76
f 76 92 93
f 76 93 77
f 77 93 94
f 77 94 78
f 78 94 95
f 78 95 79
f 79 95 96
f 79 96 80
f 80 96 81
f 80 81 65
f 81 97 98
f 81 98 82
f 82 98 99
f 82 99 83
f 83 99 100
f 83 100 84
f 84 100 101
f 84 101 85
f 85 101 102
f 85 102 86
f 86 102 103
f 86 103 87
f 87 103 104
f 87 104 88
f 88 104 105
f 88 105 89
f 89 105 106
f 89 106 90
f 90 106 107
f 90 107 91
f 91 107 108
f 91 108 92
f 92 108 109
f 92 109 93
f 93 109 110
f 93 110 94
f 94 110 111
f 94 111 95
f 95 111 112
f 95 112 96
f 96 112 97
f 96 97 81
f 113 1 2
f 114 98 97
f 113 2 3
f 114 99 98
f 113 3 4
f 114 100 99
f 113 4 5
f 114 101 100
f 113 5 6
f 114 102 101
f 113 6 7
f 114 103 102
f 113 7 8
f 114 104 103
f 113 8 9
f 114 105 104
f 113 9 10
f 114 106 105
f 113 10 11
f 114 107 106
f 113 11 12
f 114 108 107
f 113 12 13
f 114 109 108
f 113 13 14
f 114 110 109
f 113 14 15
f 114 111 110
f 113 15 16
f 114 112 111
f 113 16 1
f 114 97 112
f 115 131 132
f 115 132 116
f 116 132 133
f 116 133 117
f 117 133 134
f 117 134 118
f 118 134 135
f 118 135 119
f 119 135 136
f 119 136 120
f 120 136 137
f 120 137 121
f 121 137 138
f 121 138 122
f 122 138 139
f 122 139 123
f 123 139 140
f 123 140 124
f 124 140 141
f 124 141 125
f 125 141 142
f 125 142 126
f 126 142 143
f 126 143 127
f 127 143 144
f 127 144 128
f 128 144 145
f 128 145 129
f 129 145 146
f 129 146 130
f 130 146 131
f 130 131 115
f 131 147 148
f 131 148 132
f 132 148 149
f 132 149 133
f 133 149 150
f 133 150 134
f 134 150 151
f 134 151 135
f 135 151 152
f 135 152 136
f 136 152 153
f 136 153 137
f 137 153 154
f 137 154 138
f 138 154 155
f 138 155 139
f 139 155 156
f 139 156 140
f 140 156 157
f 140 157 141
f 141 157 158
f 141 158 142
f 142 158 159
f 142 159 143
f 143 159 160
f 143 160 144
f 144 160 161
f 144 161 145
f 145 161 162
f 145 162 146
f 146 162 147
f 146 147 131
f 147 163 164
f 147 164 148
f 148 164 165
f 148 165 149
f 149 165 166
f 149 166 150
f 150 166 167
f 150 167 151
f 151 167 168
f 151 168 152
f 152 168 169
f 152 169 153
f 153 169 170
f 153 170 154
f 154 170 171
f 154 171 155
f 155 171 172
f 155 172 156
f 156 172 173
f 156 173 157
f 157 173 174
f 157 174 158
f 158 174 175
f 158 175 159
f 159 175 176
f 159 176 160
f 160 176 177
f 160 177 161
f 161 177 178
f 161 178 162
f 162 178 163
f 162 163 147
f 163 179 180
f 163 180 164
f 164 180 181
f 164 181 165
f 165 181 182
f 165 182 166
f 166 182 183
f 166 183 167
f 167 183 184
f 167 184 168
f 168 184 185
f 168 185 169
f 169 185 186
f 169 186 170
f 170 186 187
f 170 187 171
f 171 187 188
f 171 188 172
f 172 188 189
f 172 189 173
f 173 189 190
f 173 190 174
f 174 190 191
f 174 191 175
f 175 191 192
f 175 192 176
f 176 192 193
f 176 193 177
f 177 193 194
f 177 194 178
f 178 194 179
f 178 179 163
f 179 195 196
f 179 196 180
f 180 196 197
f 180 197 181
f 181 197 198
f 181 198 182
f 182 198 199
f 182 199 183
f 183 199 200
f 183 200 184
f 184 200 201
f 184 201 185
f 185 201 202
f 185 202 186
f 186 202 203
f 186 203 187
f 187 203 204
f 187 204 188
f 188 204 205
f 188 205 189
f 189 205 206
f 189 206 190
f 190 206 207
f 190 207 191
f 191 207 208
f 191 208 192
f 192 208 209
f 192 209 193
f 193 209 210
f 193 210 194
f 194 210 195
f 194 195 179
f 195 211 212
f 195 212 196
f 196 212 213
f 196 213 197
f 197 213 214
f 197 214 198
f 198 214 215
f 198 215 199
f 199 215 216
f 199 216 200
f 200 216 217
f 200 217 201
f 201 217 218
f 201 218 202
f 202 218 219
f 202 219 203
f 203 219 220
f 203 220 204
f 204 220 221
f 204 221 205
f 205 221 222
f 205 222 206
f 206 222 223
f 206 223 207
f 207 223 224
f 207 224 208
f 208 224 225
f 208 225 209
f 209 225 226
f 209 226 210
f 210 226 211
f 210 211 195
f 227 115 116
f 228 212 211
f 227 116 117
f 228 213 212
f 227 117 118
f 228 214 213
f 227 118 119
f 228 215 214
f 227 119 120
f 228 216 215
f 227 120 121
f 228 217 216
f 227 121 122
f 228 218 217
f 227 122 123
f 228 219 218
f 227 123 124
f 228 220 219
f 227 124 125
f 228 221 220
f 227 125 126
f 228 222 221
f 227 126 127
f 228 223 222
f 227 127 128
f 228 224 223
f 227 128 129
f 228 225 224
f 227 129 130
f 228 226 225
f 227 130 115
f 228 211 226
f 229 245 246
f 229 246 230
f 230 246 247
f 230 247 231
f 231 247 248
f 231 248 232
f 232 248 249
f 232 249 233
f 233 249 250
f 233 250 234
f 234 250 251
f 234 251 235
f 235 251 252
f 235 252 236
f 236 252 253
f 236 253 237
f 237 253 254
f 237 254 238
f 238 254 255
f 238 255 239
f 239 255 256
f 239 256 240
f 240 256 257
f 240 257 241
f 241 257 258
f 241 258 242
f 242 258 259
f 242 259 243
f 243 259 260
f 243 260 244
f 244 260 245
f 244 245 229
f 245 261 262
f 245 262 246
f 246 262 263
f 246 263 247
f 247 263 264
f 247 264 248
f 248 264 265
f 248 265 249
f 249 265 266
f 249 266 250
f 250 266 267
f 250 267 251
f 251 267 268
f 251 268 252
f 252 268 269
f 252 269 253
f 253 269 270
f 253 270 254
f 254 270 271
f 254 271 255
f 255 271 272
f 255 272 256
f 256 272 273
f 256 273 257
f 257 273 274
f 257 274 258
f 258 274 275
f 258 275 259
f 259 275 276
f 259 276 260
f 260 276 261
f 260 261 245
f 261 277 278
f 261 278 262
f 262 278 279
f 262 279 263
f 263 279 280
f 263 280 264
f 264 280 281
f 264 281 265
f 265 281 282
f 265 282 266
f 266 282 283
f 266 283 267
f 267 283 284
f 267 284 268
f 268 284 285
f 268 285 269
f 269 285 286
f 269 286 270
f 270 286 287
f 270 287 271
f 271 287 288
f 271 288 272
f 272 288 289
f 272 289 273
f 273 289 290
f 273 290 274
f 274 290 291
f 274 291 275
f 275 291 292
f 275 292 276
f 276 292 277
f 276 277 261
f 277 293 294
f 277 294 278
f 278 294 295
f 278 295 279
f 279 295 296
f 279 296 280
f 280 296 297
f 280 297 281
f 281 297 298
f 281 298 282
f 282 298 299
f 282 299 283
f 283 299 300
f 283 300 284
f 284 300 301
f 284 301 285
f 285 301 302
f 285 302 286
f 286 302 303
f 286 303 287
f 287 303 304
f 287 304 288
f 288 304 305
f 288 305 289
f 289 305 306
f 289 306 290
f 290 306 307
f 290 307 291
f 291 307 308
f 291 308 292
f 292 308 293
f 292 293 277
f 293 309 310
f 293 310 294
f 294 310 311
f 294 311 295
f 295 311 312
f 295 312 296
f 296 312 313
f 296 313 297
f 297 313 314
f 297 314 298
f 298 314 315
f 298 315 299
f 299 315 316
f 299 316 300
f 300 316 317
f 300 317 301
f 301 317 318
f 301 318 302
f 302 318 319
f 302 319 303
f 303 319 320
f 303 320 304
f 304 320 321
f 304 321 305
f 305 321 322
f 305 322 306
f 306 322 323
f 306 323 307
f 307 323 324
f 307 324 308
f 308 324 309
f 308 309 293
f 309 325 326
f 309 326 310
f 310 326 327
f 310 327 311
f 311 327 328
f 311 328 312
f 312 328 329
f 312 329 313
f 313 329 330
f 313 330 314
f 314 330 331
f 314 331 315
f 315 331 332
f 315 332 316
f 316 332 333
f 316 333 317
f 317 333 334
f 317 334 318
f 318 334 335
f 318 335 319
f 319 335 336
f 319 336 320
f 320 336 337
f 320 337 321
f 321 337 338
f 321 338 322
f 322 338 339
f 322 339 323
f 323 339 340
f 323 340 324
f 324 340 325
f 324 325 309
f 341 229 230
f 342 326 325
f 341 230 231
f 342 327 326
f 341 231 232
f 342 328 327
f 341 232 233
f 342 329 328
f 341 233 234
f 342 330 329
f 341 234 235
f 342 331 330
f 341 235 236
f 342 332 331
f 341 236 237
f 342 333 332
f 341 237 238
f 342 334 333
f 341 238 239
f 342 335 334
f 341 239 240
f 342 336 335
f 341 240 241
f 342 337 336
f 341 241 242
f 342 338 337
f 341 242 243
f 342 339 338
f 341 243 244
f 342 340 339
f 341 244 229
f 342 325 340
f 343 359 360
f 343 360 344
f 344 360 361
f 344 361 345
f 345 361 362
f 345 362 346
f 346 362 363
f 346 363 347
f 347 363 364
f 347 364 348
f 348 364 365
f 348 365 349
f 349 365 366
f 349 366 350
f 350 366 367
f 350 367 351
f 351 367 368
f 351 368 352
f 352 368 369
f 352 369 353
f 353 369 370
f 353 370 354
f 354 370 371
f 354 371 355
f 355 371 372
f 355 372 356
f 356 372 373
f 356 373 357
f 357 373 374
f 357 374 358
f 358 374 359
f 358 359 343
f 359 375 376
f 359 376 360
f 360 376 377
f 360 377 361
f 361 377 378
f 361 378 362
f 362 378 379
f 362 379 363
f 363 379 380
f 363 380 364
f 364 380 381
f 364 381 365
f 365 381 382
f 365 382 366
f 366 382 383
f 366 383 367
f 367 383 384
f 367 384 368
f 368 384 385
f 368 385 369
f 369 385 386
f 369 386 370
f 370 386 387
f 370 387 371
f 371 387 388
f 371 388 372
f 372 388 389
f 372 389 373
f 373 389 390
f 373 390 374
f 374 390 375
f 374 375 359
f 375 391 392
f 375 392 376
f 376 392 393
f 376 393 377
f 377 393 394
f 377 394 378
f 378 394 395
f 378 395 379
f 379 395 396
f 379 396 380
f 380 396 397
f 380 397 381
f 381 397 398
f 381 398 382
f 382 398 399
f 382 399 383
f 383 399 400
f 383 400 384
f 384 400 401
f 384 401 385
f 385 401 402
f 385 402 386
f 386 402 403
f 386 403 387
f 387 403 404
f 387 404 388
f 388 404 405
f 388 405 389
f 389 405 406
f 389 406 390
f 390 406 391
f 390 391 375
f 391 407 408
f 391 408 392
f 392 408 409
f 392 409 393
f 393 409 410
f 393 410 394
f 394 410 411
f 394 411 395
f 395 411 412
f 395 412 396
f 396 412 413
f 396 413 397
f 397 413 414
f 397 414 398
f 398 414 415
f 398 415 399
f 399 415 416
f 399 416 400
f 400 416 417
f 400 417 401
f 401 417 418
f 401 418 402
f 402 418 419
f 402 419 403
f 403 419 420
f 403 420 404
f 404 420 421
f 404 421 405
f 405 421 422
f 405 422 406
f 406 422 407
f 406 407 391
f 407 423 424
f 407 424 408
f 408 424 425
f 408 425 409
f 409 425 426
f 409 426 410
f 410 426 427
f 410 427 411
f 411 427 428
f 411 428 412
f 412 428 429
f 412 429 413
f 413 429 430
f 413 430 414
f 414 430 431
f 414 431 415
f 415 431 432
f 415 432 416
f 416 432 433
f 416 433 417
f 417 433 434
f 417 434 418
f 418 434 435
f 418 435 419
f 419 435 436
f 419 436 420
f 420 436 437
f 420 437 421
f 421 437 438
f 421 438 422
f 422 438 423
f 422 423 407
f 423 439 440
f 423 440 424
f 424 440 441
f 424 441 425
f 425 441 442
f 425 442 426
f 426 442 443
f 426 443 427
f 427 443 444
f 427 444 428
f 428 444 445
f 428 445 429
f 429 445 446
f 429 446 430
f 430 446 447
f 430 447 431
f 431 447 448
f 431 448 432
f 432 448 449
f 432 449 433
f 433 449 450
f 433 450 434
f 434 450 451
f 434 451 435
f 435 451 452
f 435 452 436
f 436 452 453
f 436 453 437
f 437 453 454
f 437 454 438
f 438 454 439
f 438 439 423
f 455 343 344
f 456 440 439
f 455 344 345
f 456 441 440
f 455 345 346
f 456 442 441
f 455 346 347
f 456 443 442
f 455 347 348
f 456 444 443
f 455 348 349
f 456 445 444
f 455 349 350
f 456 446 445
f 455 350 351
f 456 447 446
f 455 351 352
f 456 448 447
f 455 352 353
f 456 449 448
f 455 353 354
f 456 450 449
f 455 354 355
f 456 451 450
f 455 355 356
f 456 452 451
f 455 356 357
f 456 453 452
f 455 357 358
f 456 454 453
f 455 358 343
f 456 439 454
f 457 473 474
f 457 474 458
f 458 474 475
f 458 475 459
f 459 475 476
f 459 476 460
f 460 476 477
f 460 477 461
f 461 477 478
f 461 478 462
f 462 478 479
f 462 479 463
f 463 479 480
f 463 480 464
f 464 480 481
f 464 481 465
f 465 481 482
f 465 482 466
f 466 482 483
f 466 483 467
f 467 483 484
f 467 484 468
f 468 484 485
f 468 485 469
f 469 485 486
f 469 486 470
f 470 486 487
f 470 487 471
f 471 487 488
f 471 488 472
f 472 488 473
f 472 473 457
f 473 489 490
f 473 490 474
f 474 490 491
f 474 491 475
f 475 491 492
f 475 492 476
f 476 492 493
f 476 493 477
f 477 493 494
f 477 494 478
f 478 494 495
f 478 495 479
f 479 495 496
f 479 496 480
f 480 496 497
f 480 497 481
f 481 497 498
f 481 498 482
f 482 498 499
f 482 499 483
f 483 499 500
f 483 500 484
f 484 500 501
f 484 501 485
f 485 501 502
f 485 502 486
f 486 502 503
f 486 503 487
f 487 503 504
f 487 504 488
f 488 504 489
f 488 489 473
f 489 505 506
f 489 506 490
f 490 506 507
f 490 507 491
f 491 507 508
f 491 508 492
f 492 508 509
f 492 509 493
f 493 509 510
f 493 510 494
f 494 510 511
f 494 511 495
f 495 511 512
f 495 512 496
f 496 512 513
f 496 513 497
f 497 513 514
f 497 514 498
f 498 514 515
f 498 515 499
f 499 515 516
f 499 516 500
f 500 516 517
f 500 517 501
f 501 517 518
f 501 518 502
f 502 518 519
f 502 519 503
f 503 519 520
f 503 520 504
f 504 520 505
f 504 505 489
f 505 521 522
f 505 522 506
f 506 522 523
f 506 523 507
f 507 523 524
f 507 524 508
f 508 524 525
f 508 525 509
f 509 525 526
f 509 526 510
f 510 526 527
f 510 527 511
f 511 527 528
f 511 528 512
f 512 528 529
f 512 529 513
f 513 529 530
f 513 530 514
f 514 530 531
f 514 531 515
f 515 531 532
f 515 532 516
f 516 532 533
f 516 533 517
f 517 533 534
f 517 534 518
f 518 534 535
f 518 535 519
f 519 535 536
f 519 536 520
f 520 536 521
f 520 521 505
f 521 537 538
f 521 538 522
f 522 538 539
f 522 539 523
f 523 539 540
f 523 540 524
f 524 540 541
f 524 541 525
f 525 541 542
f 525 542 526
f 526 542 543
f 526 543 527
f 527 543 544
f 527 544 528
f 528 544 545
f 528 545 529
f 529 545 546
f 529 546 530
f 530 546 547
f 530 547 531
f 531 547 548
f 531 548 532
f 532 548 549
f 532 549 533
f 533 549 550
f 533 550 534
f 534 550 551
f 534 551 535
f 535 551 552
f 535 552 536
f 536 552 537
f 536 537 521
f 537 553 554
f 537 554 538
f 538 554 555
f 538 555 539
f 539 555 556
f 539 556 540
f 540 556 557
f 540 557 541
f 541 557 558
f 541 558 542
f 542 558 559
f 542 559 543
f 543 559 560
f 543 560 544
f 544 560 561
f 544 561 545
f 545 561 562
f 545 562 546
f 546 562 563
f 546 563 547
f 547 563 564
f 547 564 548
f 548 564 565
f 548 565 549
f 549 565 566
f 549 566 550
f 550 566 567
f 550 567 551
f 551 567 568
f 551 568 552
f 552 568 553
f 552 553 537
f 569 457 458
f 570 554 553
f 569 458 459
f 570 555 554
f 569 459 460
f 570 556 555
f 569 460 461
f 570 557 556
f 569 461 462
f 570 558 557
f 569 462 463
f 570 559 558
f 569 463 464
f 570 560 559
f 569 464 465
f 570 561 560
f 569 465 466
f 570 562 561
f 569 466 467
f 570 563 562
f 569 467 468
f 570 564 563
f 569 468 469
f 570 565 564
f 569 469 470
f 570 566 565
f 569 470 471
f 570 567 566
f 569 471 472
f 570 568 567
f 569 472 457
f 570 553 568
f 571 587 588
f 571 588 572
f 572 588 589
f 572 589 573
f 573 589 590
f 573 590 574
f 574 590 591
f 574 591 575
f 575 591 592
f 575 592 576
f 576 592 593
f 576 593 577
f 577 593 594
f 577 594 578
f 578 594 595
f 578 595 579
f 579 595 596
f 579 596 580
f 580 596 597
f 580 597 581
f 581 597 598
f 581 598 582
f 582 598 599
f 582 599 583
f 583 599 600
f 583 600 584
f 584 600 601
f 584 601 585
f 585 601 602
f 585 602 586
f 586 602 587
f 586 587 571
f 587 603 604
f 587 604 588
f 588 604 605
f 588 605 589
f 589 605 606
f 589 606 590
f 590 606 607
f 590 607 591
f 591 607 608
f 591 608 592
f 592 608 609
f 592 609 593
f 593 609 610
f 593 610 594
f 594 610 611
f 594 611 595
f 595 611 612
f 595 612 596
f 596 612 613
f 596 613 597
f 597 613 614
f 597 614 598
f 598 614 615
f 598 615 599
f 599 615 616
f 599 616 600
f 600 616 617
f 600 617 601
f 601 617 618
f 601 618 602
f 602 618 603
f 602 603 587
f 603 619 620
f 603 620 604
f 604 620 621
f 604 621 605
f 605 621 622
f 605 622 606
f 606 622 623
f 606 623 607
f 607 623 624
f 607 624 608
f 608 624 625
f 608 625 609
f 609 625 626
f 609 626 610
f 610 626 627
f 610 627 611
f 611 627 628
f 611 628 612
f 612 628 629
f 612 629 613
f 613 629 630
f 613 630 614
f 614 630 631
f 614 631 615
f 615 631 632
f 615 632 616
f 616 632 633
f 616 633 617
f 617 633 634
f 617 634 618
f 618 634 619
f 618 619 603
f 619 635 636
f 619 636 620
f 620 636 637
f 620 637 621
f 621 637 638
f 621 638 622
f 622 638 639
f 622 639 623
f 623 639 640
f 623 640 624
f 624 640 641
f 624 641 625
f 625 641 642
f 625 642 626
f 626 642 643
f 626 643 627
f 627 643 644
f 627 644 628
f 628 644 645
f 628 645 629
f 629 645 646
f 629 646 630
f 630 646 647
f 630 647 631
f 631 647 648
f 631 648 632
f 632 648 649
f 632 649 633
f 633 649 650
f 633 650 634
f 634 650 635
f 634 635 619
f 635 651 652
f 635 652 636
f 636 652 653
f 636 653 637
f 637 653 654
f 637 654 638
f 638 654 655
f 638 655 639
f 639 655 656
f 639 656 640
f 640 656 657
f 640 657 641
f 641 657 658
f 641 658 642
f 642 658 659
f 642 659 643
f 643 659 660
f 643 660 644
f 644 660 661
f 644 661 645
f 645 661 662
f 645 662 646
f 646 662 663
f 646 663 647
f 647 663 664
f 647 664 648
f 648 664 665
f 648 665 649
f 649 665 666
f 649 666 650
f 650 666 651
f 650 651 635
f 651 667 668
f 651 668 652
f 652 668 669
f 652 669 653
f 653 669 670
f 653 670 654
f 654 670 671
f 654 671 655
f 655 671 672
f 655 672 656
f 656 672 673
f 656 673 657
f 657 673 674
f 657 674 658
f 658 674 675
f 658 675 659
f 659 675 676
f 659 676 660
f 660 676 677
f 660 677 661
f 661 677 678
f 661 678 662
f 662 678 679
f 662 679 663
f 663 679 680
f 663 680 664
f 664 680 681
f 664 681 665
f 665 681 682
f 665 682 666
f 666 682 667
f 666 667 651
f 683 571 572
f 684 668 667
f 683 572 573
f 684 669 668
f 683 573 574
f 684 670 669
f 683 574 575
f 684 671 670
f 683 575 576
f 684 672 671
f 683 576 577
f 684 673 672
f 683 577 578
f 684 674 673
f 683 578 579
f 684 675 674
f 683 579 580
f 684 676 675
f 683 580 581
f 684 677 676
f 683 581 582
f 684 678 677
f 683 582 583
f 684 679 678
f 683 583 584
f 684 680 679
f 683 584 585
f 684 681 680
f 683 585 586
f 684 682 681
f 683 586 571
f 684 667 682
f 685 701 702
f 685 702 686
f 686 702 703
f 686 703 687
f 687 703 704
f 687 704 688
f 688 704 705
f 688 705 689
f 689 705 706
f 689 706 690
f 690 706 707
f 690 707 691
f 691 707 708
f 691 708 692
f 692 708 709
f 692 709 693
f 693 709 710
f 693 710 694
f 694 710 711
f 694 711 695
f 695 711 712
f 695 712 696
f 696 712 713
f 696 713 697
f 697 713 714
f 697 714 698
f 698 714 715
f 698 715 699
f 699 715 716
f 699 716 700
f 700 716 701
f 700 701 685
f 701 717 718
f 701 718 702
f 702 718 719
f 702 719 703
f 703 719 720
f 703 720 704
f 704 720 721
f 704 721 705
f 705 721 722
f 705 722 706
f 706 722 723
f 706 723 707
f 707 723 724
f 707 724 708
f 708 724 725
f 708 725 709
f 709 725 726
f 709 726 710
f 710 726 727
f 710 727 711
f 711 727 728
f 711 728 712
f 712 728 729
f 712 729 713
f 713 729 730
f 713 730 714
f 714 730 731
f 714 731 715
f 715 731 732
f 715 732 716
f 716 732 717
f 716 717 701
f 717 733 734
f 717 734 718
f 718 734 735
f 718 735 719
f 719 735 736
f 719 736 720
f 720 736 737
f 720 737 721
f 721 737 738
f 721 738 722
f 722 738 739
f 722 739 723
f 723 739 740
f 723 740 724
f 724 740 741
f 724 741 725
f 725 741 742
f 725 742 726
f 726 742 743
f 726 743 727
f 727 743 744
f 727 744 728
f 728 744 745
f 728 745 729
f 729 745 746
f 729 746 730
f 730 746 747
f 730 747 731
f 731 747 748
f 731 748 732
f 732 748 733
f 732 733 717
f 733 749 750
f 733 750 734
f 734 750 751
f 734 751 735
f 735 751 752
f 735 752 736
f 736 752 753
f 736 753 737
f 737 753 754
f 737 754 738
f 738 754 755
f 738 755 739
f 739 755 756
f 739 756 740
f 740 756 757
f 740 757 741
f 741 757 758
f 741 758 742
f 742 758 759
f 742 759 743
f 743 759 760
f 743 760 744
f 744 760 761
f 744 761 745
f 745 761 762
f 745 762 746
f 746 762 763
f 746 763 747
f 747 763 764
f 747 764 748
f 748 764 749
f 748 749 733
f 749 765 766
f 749 766 750
f 750 766 767
f 750 767 751
f 751 767 768
f 751 768 752
f 752 768 769
f 752 769 753
f 753 769 770
f 753 770 754
f 754 770 771
f 754 771 755
f 755 771 772
f 755 772 756
f 756 772 773
f 756 773 757
f 757 773 774
f 757 774 758
f 758 774 775
f 758 775 759
f 759 775 776
f 759 776 760
f 760 776 777
f 760 777 761
f 761 777 778
f 761 778 762
f 762 778 779
f 762 779 763
f 763 779 780
f 763 780 764
f 764 780 765
f 764 765 749
f 765 781 782
f 765 782 766
f 766 782 783
f 766 783 767
f 767 783 784
f 767 784 768
f 768 784 785
f 768 785 769
f 769 785 786
f 769 786 770
f 770 786 787
f 770 787 771
f 771 787 788
f 771 788 772
f 772 788 789
f 772 789 773
f 773 789 790
f 773 790 774
f 774 790 791
f 774 791 775
f 775 791 792
f 775 792 776
f 776 792 793
f 776 793 777
f 777 793 794
f 777 794 778
f 778 794 795
f 778 795 779
f 779 795 796
f 779 796 780
f 780 796 781
f 780 781 765
f 797 685 686
f 798 782 781
f 797 686 687
f 798 783 782
f 797 687 688
f 798 784 783
f 797 688 689
f 798 785 784
f 797 689 690
f 798 786 785
f 797 690 691
f 798 787 786
f 797 691 692
f 798 788 787
f 797 692 693
f 798 789 788
f 797 693 694
f 798 790 789
f 797 694 695
f 798 791 790
f 797 695 696
f 798 792 791
f 797 696 697
f 798 793 792
f 797 697 698
f 798 794 793
f 797 698 699
f 798 795 794
f 797 699 700
f 798 796 795
f 797 700 685
f 798 781 796
