# Town avatar, far detail: 112 triangles. Generated; rigid skinning.
v -0.045 0.02 0.0
v -0.12 0.02 0.075
v -0.195 0.02 0.0
v -0.12 0.02 -0.075
v -0.045 0.92 0.0
v -0.12 0.92 0.075
v -0.195 0.92 0.0
v -0.12 0.92 -0.075
v -0.12 0.02 0.0
v -0.12 0.92 0.0
v 0.195 0.02 0.0
v 0.12 0.02 0.075
v 0.045 0.02 0.0
v 0.12 0.02 -0.075
v 0.195 0.92 0.0
v 0.12 0.92 0.075
v 0.045 0.92 0.0
v 0.12 0.92 -0.075
v 0.12 0.02 0.0
v 0.12 0.92 0.0
v 0.17 0.84 0.0
v 0.0 0.84 0.17
v -0.17 0.84 0.0
v -0.0 0.84 -0.17
v 0.17 1.02 0.0
v 0.0 1.02 0.17
v -0.17 1.02 0.0
v -0.0 1.02 -0.17
v 0.0 0.84 0.0
v 0.0 1.02 0.0
v 0.18 1.0 0.0
v 0.0 1.0 0.18
v -0.18 1.0 0.0
v -0.0 1.0 -0.18
v 0.18 1.6 0.0
v 0.0 1.6 0.18
v -0.18 1.6 0.0
v -0.0 1.6 -0.18
v 0.0 1.0 0.0
v 0.0 1.6 0.0
v 0.11 1.62 0.0
v 0.0 1.62 0.11
v -0.11 1.62 0.0
v -0.0 1.62 -0.11
v 0.11 1.86 0.0
v 0.0 1.86 0.11
v -0.11 1.86 0.0
v -0.0 1.86 -0.11
v 0.0 1.62 0.0
v 0.0 1.86 0.0
v -0.25 0.98 0.0
v -0.3 0.98 0.05
v -0.35 0.98 0.0
v -0.3 0.98 -0.05
v -0.25 1.58 0.0
v -0.3 1.58 0.05
v -0.35 1.58 0.0
v -0.3 1.58 -0.05
v -0.3 0.98 0.0
v -0.3 1.58 0.0
v 0.35 0.98 0.0
v 0.3 0.98 0.05
v 0.25 0.98 0.0
v 0.3 0.98 -0.05
v 0.35 1.58 0.0
v 0.3 1.58 0.05
v 0.25 1.58 0.0
v 0.3 1.58 -0.05
v 0.3 0.98 0.0
v 0.3 1.58 0.0
f 1 5 6
f 1 6 2
f 2 6 7
f 2 7 3
f 3 7 8
f 3 8 4
f 4 8 5
f 4 5 1
f 9 1 2
f 10 6 5
f 9 2 3
f 10 7 6
f 9 3 4
f 10 8 7
f 9 4 1
f 10 5 8
f 11 15 16
f 11 16 12
f 12 16 17
f 12 17 13
f 13 17 18
f 13 18 14
f 14 18 15
f 14 15 11
f 19 11 12
f 20 16 15
f 19 12 13
f 20 17 16
f 19 13 14
f 20 18 17
f 19 14 11
f 20 15 18
f 21 25 26
f 21 26 22
f 22 26 27
f 22 27 23
f 23 27 28
f 23 28 24
f 24 28 25
f 24 25 21
f 29 21 22
f 30 26 25
f 29 22 23
f 30 27 26
f 29 23 24
f 30 28 27
f 29 24 21
f 30 25 28
f 31 35 36
f 31 36 32
f 32 36 37
f 32 37 33
f 33 37 38
f 33 38 34
f 34 38 35
f 34 35 31
f 39 31 32
f 40 36 35
f 39 32 33
f 40 37 36
f 39 33 34
f 40 38 37
f 39 34 31
f 40 35 38
f 41 45 46
f 41 46 42
f 42 46 47
f 42 47 43
f 43 47 48
f 43 48 44
f 44 48 45
f 44 45 41
f 49 41 42
f 50 46 45
f 49 42 43
f 50 47 46
f 49 43 44
f 50 48 47
f 49 44 41
f 50 45 48
f 51 55 56
f 51 56 52
f 52 56 57
f 52 57 53
f 53 57 58
f 53 58 54
f 54 58 55
f 54 55 51
f 59 51 52
f 60 56 55
f 59 52 53
f 60 57 56
f 59 53 54
f 60 58 57
f 59 54 51
f 60 55 58
f 61 65 66
f 61 66 62
f 62 66 67
f 62 67 63
f 63 67 68
f 63 68 64
f 64 68 65
f 64 65 61
f 69 61 62
f 70 66 65
f 69 62 63
f 70 67 66
f 69 63 64
f 70 68 67
f 69 64 61
f 70 65 68
